<svg xmlns="http://www.w3.org/2000/svg" viewBox="0 0 895.33 175"><defs><style>.cls-1{fill:#fff;}.cls-2,.cls-3{fill:#f4c23d;}.cls-3{font-size:74.43px;font-family:AmuseBouche, Amuse-Bouche;}.cls-4{letter-spacing:-0.01em;}.cls-5{letter-spacing:0em;}.cls-6{letter-spacing:-0.03em;}.cls-7{letter-spacing:-0.01em;}.cls-8{font-size:71.22px;font-family:Bigboz;}</style></defs><title>ssss</title><g id="Layer_2" data-name="Layer 2"><g id="Layer_1-2" data-name="Layer 1"><path class="cls-1" d="M785.31,175H24.25C5.79,175-5.88,157.91,3.08,144L88.84,10.75C93.11,4.11,101.21,0,110,0H871.08c18.46,0,30.13,17.09,21.17,31L806.49,164.25C802.22,170.89,794.11,175,785.31,175Z"/><path class="cls-2" d="M240.35,68.46l90.13.91v-.32c-12.81-.31-25.61-.69-38.42-.89-19.2-.31-38.4-.45-57.59-.78-3,0-6-.87-9-1.18-6.94-.71-13.89-1.32-20.83-2a3.94,3.94,0,0,1-1.8-.47c-2-1.37-4-2.79-6-4.3a2.63,2.63,0,0,1-.63-1.62,34,34,0,0,0-.53-4.89c-1-3.51-3.54-5.63-6.95-6.71A32.63,32.63,0,0,0,176.24,45c-4.61.38-9.19,1-14.12,1.32.37-.23.75-.45,1.1-.7,5.4-3.81,10.74-7.71,16.22-11.4,3.11-2.1,6.52-3.68,10.42-3.62,5.45.09,9.57,3,13.33,6.5,4.47,4.19,7.27,9.56,10.29,14.77q2.76,4.76,5.5,9.51l.36-.18c-1.92-4-3.69-8.12-5.8-12-2.41-4.45-5.09-8.75-7.7-13.08-1.23-2-1-2.72,1.37-3a19,19,0,0,1,2.39-.11l63.68-.16c2.55,0,5.1,0,7.66,0v-.68c-6.45,0-12.9.08-19.35,0q-29.5-.45-59-1a5.63,5.63,0,0,1-2.46-.83c-1.38-.78-2.68-1.71-4.22-2.72,1.45-.1,2.78-.27,4.1-.28,16.9-.11,33.81-.31,50.71-.27s34,.31,51,.17c-19.65-.79-39.3-1.85-59-2.29-18.49-.41-37-.23-55.5-.16-7.78,0-15,2.64-21.95,5.85-5.79,2.67-11.36,5.85-17,8.77a5.4,5.4,0,0,1-2.09.64c-10.43.59-20.87,1.11-31.3,1.73a30.32,30.32,0,0,0-6.14,1c-2.53.67-3.11,2.09-2,4.5.79,1.73,1.8,3.35,2.79,5.17l-3.84.74c-9.74,1.86-15.66,7.68-17.9,17.3A40.73,40.73,0,0,0,87.1,87c.38,2.18-.3,4.55-.39,6.83-.46,11.39-.15,22.71,2.63,33.85.15.56.36,1.11.49,1.68,1,4.29,3.76,6.64,8.15,6.75,5.33.14,10.65.07,16,.07a6.83,6.83,0,0,0,1.46-.35c-6.42-.31-12.8-.49-19-2.47,4.42-10.82,4.75-21.9,4.77-33a97.31,97.31,0,0,0-2.87-25.2,3.91,3.91,0,0,1,.14-.78c.47,1.28.85,2.15,1.11,3.06a58.74,58.74,0,0,1,2.22,16.91c-.19,11.24-.67,22.48-1,33.73,0,.52-.05,1-.08,1.67,2.71.62,5.34,1.24,8,1.83,5.93,1.34,11.28,4.16,16.73,6.72q14,6.55,27.83,13.32a6.53,6.53,0,0,1,2.34,2c5.65,8.16,12.74,14.59,22.36,17.52a61.1,61.1,0,0,0,12.88,2.11c9.69.78,19.39.22,29.07-.61a4.09,4.09,0,0,0,1.42-.37l-22.57-1.2-.09-.46c.84-.31,1.69-.57,2.51-.92,1.82-.77,3.59-2.11,5.43-2.21s3.56,1.31,5.41,1.64c6.45,1.15,12.89,2.47,19.39,3.09,10.88,1,21.8,1.6,32.7,2.35a9.21,9.21,0,0,0,1.89-.09c-8.42-1.3-16.85-2.56-25.26-3.92-7.36-1.19-14.71-2.49-22-3.77-.89-.16-1.76-.46-2.64-.67-7.09-1.71-10.5-6.57-11.18-13.5-1-9.86-1.64-19.76-2.64-29.62-1.06-10.51-2.56-21-6.12-31a35.32,35.32,0,0,0-5.66-10.69,15.82,15.82,0,0,0-8.78-5.79c-4.37-1-8.25,0-11.17,3.39A79.36,79.36,0,0,0,165.65,86c-1.21,1.76-2.5,3.46-3.76,5.18l-.51-.26c0-.17-.1-.36,0-.5,2.19-6.29,5.56-11.75,11.07-15.68,4.89-3.48,10.43-3.74,16.1-3,6.49.83,11.68,4.37,16.29,8.62,8.48,7.79,16.69,15.87,25,23.84,8.9,8.53,18.06,16.74,28.45,23.48a65.32,65.32,0,0,0,29.7,10c5.44.54,10.94.53,16.38.63-6.72-1-13.49-1.87-20.17-3.19-13.94-2.75-25.79-9.74-36.15-19.17-10.64-9.7-20.89-19.81-31.33-29.73-2.67-2.53-5.33-5.08-8.09-7.51-6.8-6-12.85-8.66-21.84-10a12.8,12.8,0,0,1,1.35-.36,120.13,120.13,0,0,1,23.28-1.23,131.79,131.79,0,0,1,24.52,3.37,91.63,91.63,0,0,1,29,12.69c7,4.6,13.49,10,20.27,15,6.62,4.85,13.27,9.65,20,14.31a18.43,18.43,0,0,0,5.42,2.27,4.4,4.4,0,0,0,5.82-2.81,18.3,18.3,0,0,0,1-4c.78-4.78,1.25-9.63,2.3-14.35,1.42-6.42,5.65-10.27,12-11.91a32.39,32.39,0,0,0,6.55-2.42,7.43,7.43,0,0,0,4-6.32c.11-1.33-.24-2-1.83-2q-20.32-.15-40.64-.44-27.6-.44-55.18-1a35.78,35.78,0,0,1-4.46-.65Zm-150.75,2c2.15-6.53,6-11.45,12.7-13.58,5.4-1.71,11-1.87,16.6-2.06a25.37,25.37,0,0,1,19.73,7.85,118,118,0,0,1,16.66,21.8c.44.73.87,1.47,1.3,2.2l1.27,2.17C153.8,75.61,147,64.11,136.31,55.13a56.43,56.43,0,0,1,14.81,2.8,1.73,1.73,0,0,1,.74,1.34,3.7,3.7,0,0,0,2.94,3.86,16.24,16.24,0,0,0,2.77.75c5.78.51,11.57.9,17.34,1.45,2.23.21,4.44.75,6.65,1.14l0,.51-1.56.56c-11.64,4.25-18.73,12.21-20.27,24.75A3.06,3.06,0,0,1,159,93.8c-7.58,8.93-11.25,19.32-11.63,31a8.66,8.66,0,0,1-.5,1.89,5.36,5.36,0,0,1-1.84-.76c-2-2-3.83-4.12-5.77-6.17a2.77,2.77,0,0,0-1.3-.93c-4.41-.68-8.85-1.28-13.27-1.93-1.39-.21-2.77-.5-4.3-.78a7.22,7.22,0,0,0,2.54,5.43,74,74,0,0,0,9.42,7.07c4.69,2.83,9.66,5.2,14.53,7.74a4.31,4.31,0,0,1,2.34,3c.53,2.1,1.38,4.13,2.08,6.2a11.57,11.57,0,0,1,.25,1.17c-4.61-2.33-9-4.51-13.35-6.74-7.44-3.82-14.95-7.52-22.28-11.55a16.5,16.5,0,0,1-9.11-14.62c-.22-6.34-.46-12.68-.85-19A83.32,83.32,0,0,0,103.1,76c-.84-2.83-1.88-5.58-4.08-7.68a5.28,5.28,0,0,0-7.93.26C90.55,69.17,90.1,69.83,89.6,70.46ZM199.86,64c-3.2.65-5.75.61-7.62-1.9-.18-.25-.5-.4-.7-.65a2.48,2.48,0,0,0-3.08-.79,13.15,13.15,0,0,1-4.08.71c-6.43,0-12.88.06-19.31-.13a39.54,39.54,0,0,1-7.38-1.18,2.4,2.4,0,0,1-1.48-1.6c-.73-3.81,1.87-8.25,5.66-9a94.88,94.88,0,0,1,13.75-1.76,39.57,39.57,0,0,1,9.81.88,7.14,7.14,0,0,1,6,7,4,4,0,0,0,1.92,3.36C195.47,60.51,197.51,62.19,199.86,64Zm-9.48,25.63a4.09,4.09,0,0,1-.41.13h-.8a27.4,27.4,0,0,0-19,7.42c-15.22,13.66-16.13,40.37-1.86,55.16,7,7.23,15.4,10.53,25.46,8.76a67.69,67.69,0,0,0,7.45-2.21l1.2,2.76c-.66.3-1.22.59-1.8.82-12.07,4.87-25.51,1.85-34.76-7.81-13.58-14.2-15.17-37.55-3.56-53.5,6.12-8.39,14.17-13.57,24.74-14.31C189.49,86.72,189.62,86.86,190.38,89.67Zm-4.95,47.46a20.75,20.75,0,0,0,3.91-.06c1.16-.23,1.55.07,1.92,1.15a39.35,39.35,0,0,0,7.32,13.35,7.34,7.34,0,0,1,1.77,4c.13.9,0,1.48-.91,1.71q-4.51,1.23-9.05,2.38c-1.08.28-1.65-.38-2.1-1.26C184.75,151.61,184.64,144.42,185.43,137.13Zm-4.09-19.87a48.93,48.93,0,0,0-2.08,4.56c-.36,1-.87,1.12-1.78,1A27.08,27.08,0,0,0,161.42,125c-.37.17-.76.27-1.3.46a40.23,40.23,0,0,1,2.58-13.9,2.53,2.53,0,0,1,2.83-1.92C172,109.7,176.81,113.23,181.34,117.26Zm9.57-2.8a22.58,22.58,0,0,0-4,.05c-1.27.24-1.64-.25-2-1.32A39.41,39.41,0,0,0,175,97a3.9,3.9,0,0,1-.47-.72A26.93,26.93,0,0,1,185.12,92c1.63-.32,2.42.25,3.1,1.64a29.33,29.33,0,0,1,2.86,11.86C191.19,108.49,191,111.5,190.91,114.46Zm-12.27,14.17a31.22,31.22,0,0,0,2.08,4.25,1.92,1.92,0,0,1,0,2.53,43.29,43.29,0,0,0-6,14.87c-.29,1.38-.47,2.79-.72,4.29a4.57,4.57,0,0,1-.72-.34,30.51,30.51,0,0,1-8.42-9.9,2.24,2.24,0,0,1-.09-1.65C167.32,136,172.42,131.77,178.64,128.63ZM89.35,102.89c.21-7.38.33-14.84,2.2-22.13A14.85,14.85,0,0,1,93.16,77c.21-.36,1.15-.3,1.75-.43a4.6,4.6,0,0,1,.25,1.63c-.35,1.39-1,2.71-1.28,4.1a117.85,117.85,0,0,0-.72,36A43.15,43.15,0,0,0,95.39,127c.39,1.14.21,1.71-.55,2.28-.91.68-1.59,0-1.92-.71a25,25,0,0,1-1.61-4.48C89.69,117.15,89.54,110.05,89.35,102.89Zm50.76-58.65.17.44-5.91,4c-5.09,3.46-5.09,3.47-10.23,0-.88-.61-1.69-1.33-2.53-2l.16-.53C127.81,44.81,134,44.65,140.11,44.24ZM168.2,85.51c1.79-3.62,4-6.78,8.29-7.54a7.81,7.81,0,0,1,6.95,2.17A45,45,0,0,0,168.2,85.51Zm16.11,50.85c0,3.89-.1,7.79,0,11.68a25.83,25.83,0,0,0,3.4,11.5C184.15,158.6,182,143.77,184.31,136.36Zm4-44.57c3.88,1.15,6.42,19.83,3.38,23.45C192.25,107.26,192.76,99.28,188.32,91.79ZM164.41,108.2c1.54-1.34,3.23-.79,4.83-.47,5.57,1.12,9.62,4.63,13.51,8.34l-.42.77C177.12,112.36,172,107.72,164.41,108.2Zm14.1,18.64.27.39c-2,1.21-4,2.3-5.88,3.68a32.26,32.26,0,0,0-5.31,4.79,54.52,54.52,0,0,0-3.92,6.05C162.51,138.13,173,127.57,178.51,126.84ZM132.61,53a51.49,51.49,0,0,1,19.66,2.49l-.07.48Zm64.91,75.61c.86.53,1.43,6,.76,8.48-1.06-.9-2.09-1.72-3.05-2.62a1,1,0,0,1-.21-.94C195.82,131.9,196.68,130.28,197.52,128.64ZM108.88,44.19c1.65,3.47,5.06,4.94,7.74,7.76-3.67-.07-4.94-2.85-6.82-4.66C109,46.56,108.09,45.62,108.88,44.19Zm87.57,70.5.43.11.84,7.87a34.34,34.34,0,0,1-2.76-4.73,1.27,1.27,0,0,1,0-1C195.43,116.15,196,115.43,196.45,114.69Zm-3.54-50.41c-2.68,1.27-7.5,1.64-8.86.8,2.34-.5,4.64-1,7-1.45C191.52,63.54,192.11,64,192.91,64.28Zm5.76,75.17a12.09,12.09,0,0,1-4.94-4.4C195.64,136.23,197.54,137.42,198.67,139.45Z"/><path class="cls-2" d="M266.38,166.29c-4-1.45-7.7-2.71-11.33-4.07a23.79,23.79,0,0,1-14.8-14.94,40.22,40.22,0,0,1-1.86-14.51,6.25,6.25,0,0,1,.25-1.2c2.23.22,3.33,1.36,3.38,3.36a37.85,37.85,0,0,0,2.34,13.63,13.93,13.93,0,0,0,2.61,4.15A34.68,34.68,0,0,0,269.65,164c-.88-1-1.73-1.8-2.48-2.72a14.34,14.34,0,0,1-3.52-8.25c-.23-3.53,1.75-5.53,5.27-5.1a100,100,0,0,0,19.8.12c4.92-.38,9.83-1,14.72-1.77l-14.7-.47c-17.78-.59-33.26-7.14-47-18.13-2.29-1.83-4.51-3.75-6.9-5.45a10.61,10.61,0,0,0-3.76-1.62,1.84,1.84,0,0,0-2.44,2c-.11,8.43,0,16.87,2,25.12a17,17,0,0,0,9.27,11.42C248.08,163.27,256.83,165.35,266.38,166.29Z"/><path class="cls-2" d="M301.23,125.52c-5.3-1.67-10.76-2.33-16.22-4.82,2.3-1.51,4.82-2.64,2.67-5.8-.85,2.75-3.06,3.2-5.24,3.4A19.44,19.44,0,0,1,269,114.73c-4-2.83-4.46-6.46-1.6-10-3-.56-6.2-1-9.24-1.78a15.23,15.23,0,0,1-5.37-2.68A9.73,9.73,0,0,1,250,96.12c-1.06-2.85.26-4.91,3.24-5.57,4-.88,7.72,0,11.33,1.72l1.37.67.21-.49c-2.37-1-4.67-2.3-7.14-2.78-4.48-.87-9.06-1.23-13.6-1.78-1.58-.2-3.18-.3-4.76-.52a8.34,8.34,0,0,1-1.7-.64l0-.45a9.33,9.33,0,0,1,1.55-.22c6.67.19,13.39.37,19.79,2.33a44.63,44.63,0,0,1,10.2,5.15c3.79,2.37,7.29,5.19,10.92,7.81a3.75,3.75,0,0,0,1.4.69c-.23-.24-.45-.51-.7-.73-3.27-2.9-6.64-5.7-9.81-8.7a31.62,31.62,0,0,0-19-8.72c-6.25-.65-12.53-1-18.79-1.54h-.32c-1.26.11-2.71,0-3.28,1.45s.23,2.58,1.23,3.55c5.69,5.47,11.25,11.07,17.11,16.35a126.72,126.72,0,0,0,12.9,10.2c8.84,6.06,18.89,9,29.41,10.45C294.78,124.8,298,125.14,301.23,125.52Z"/><path class="cls-2" d="M298.69,35c-30.66-.3-60.83-.69-91.13-.3,6.19,9.69,10.89,19.86,15.65,30.38.18-2.76.24-5.16.52-7.55a22.62,22.62,0,0,1,1.05-4.5,16,16,0,0,1,10.33-10.55A98.23,98.23,0,0,1,255.19,38,392,392,0,0,1,298.69,35Z"/><path class="cls-2" d="M134.08,114.76c-.85-2.41-2-4.6-2.37-6.92a78.54,78.54,0,0,1-1.07-10.94c-.17-6,.05-11.93-.09-17.9-.12-5.22-.83-5.83-6-5.93-1.87,0-3.73.15-5.6.09-.46,0-.9-.55-1.35-.85.39-.37.79-1.07,1.18-1.06,3.34,0,6.69.09,10,.32a3.3,3.3,0,0,1,3.1,3.16,46.47,46.47,0,0,1,.49,5.88c0,6.39-.18,12.79,0,19.17A34.51,34.51,0,0,0,135.17,113a10,10,0,0,0,.93,1.68c-1.65-4.43-1.23-9-1.17-13.56.11-8.63.17-17.26.25-25.9a17.11,17.11,0,0,0-.1-1.75c-.37-4.2-2-5.79-6.18-6s-8.31-.22-12.46-.31a7.73,7.73,0,0,0-1.44.08c-1.86.28-2.21.68-1.92,2.53.49,3.05,1.19,6.07,1.6,9.13,1,7.76,1.86,15.55,2.94,23.3a71,71,0,0,0,1.87,8.08,3.8,3.8,0,0,0,3.34,3c3.48.5,7,1,10.42,1.57A2.67,2.67,0,0,0,134.08,114.76Z"/><text class="cls-3" transform="translate(374.39 87.08)">G<tspan class="cls-4" x="58.15" y="0">o</tspan><tspan class="cls-5" x="115.5" y="0">n</tspan><tspan class="cls-6" x="173.65" y="0">g</tspan><tspan class="cls-5" x="229.73" y="0">J</tspan><tspan class="cls-7" x="287.88" y="0">o</tspan><tspan x="345.23" y="0">e</tspan></text><text class="cls-8" transform="translate(378.12 152.08)">motors</text></g></g></svg>